<svg width="30" height="30" viewBox="0 0 30 30" fill="none" xmlns="http://www.w3.org/2000/svg">
<g clip-path="url(#clip0)">
<path d="M15.0046 7.29749C10.7509 7.29749 7.30713 10.745 7.30713 14.995C7.30713 19.2487 10.7546 22.6925 15.0046 22.6925C19.2584 22.6925 22.7021 19.245 22.7021 14.995C22.7021 10.7412 19.2546 7.29749 15.0046 7.29749ZM15.0046 19.9912C12.2434 19.9912 10.0084 17.755 10.0084 14.995C10.0084 12.235 12.2446 9.99874 15.0046 9.99874C17.7646 9.99874 20.0009 12.235 20.0009 14.995C20.0021 17.755 17.7659 19.9912 15.0046 19.9912Z" fill="#2F3035"/>
<path d="M21.1848 0.0955151C18.4248 -0.0332349 11.5885 -0.0269849 8.82605 0.0955151C6.39855 0.209265 4.2573 0.795515 2.53105 2.52177C-0.353954 5.40677 0.0147958 9.29427 0.0147958 14.9955C0.0147958 20.8305 -0.310204 24.628 2.53105 27.4693C5.4273 30.3643 9.37104 29.9855 15.0048 29.9855C20.7848 29.9855 22.7798 29.9893 24.8235 29.198C27.6023 28.1193 29.6998 25.6355 29.9048 21.1743C30.0348 18.413 30.0273 11.578 29.9048 8.81552C29.6573 3.54927 26.831 0.355515 21.1848 0.0955151ZM25.5535 25.5605C23.6623 27.4518 21.0385 27.283 14.9685 27.283C8.71854 27.283 6.2123 27.3755 4.38355 25.5418C2.2773 23.4455 2.65855 20.0793 2.65855 14.9755C2.65855 8.06927 1.9498 3.09552 8.88105 2.74051C10.4735 2.68427 10.9423 2.66552 14.951 2.66552L15.0073 2.70302C21.6685 2.70302 26.8948 2.00551 27.2085 8.93552C27.2798 10.5168 27.296 10.9918 27.296 14.9943C27.2948 21.1718 27.4123 23.693 25.5535 25.5605Z" fill="#2F3035"/>
<path d="M23.0077 8.79251C24.0012 8.79251 24.8065 7.98718 24.8065 6.99376C24.8065 6.00033 24.0012 5.19501 23.0077 5.19501C22.0143 5.19501 21.209 6.00033 21.209 6.99376C21.209 7.98718 22.0143 8.79251 23.0077 8.79251Z" fill="#2F3035"/>
</g>
<defs>
<clipPath id="clip0">
<rect width="30" height="30" fill="white"/>
</clipPath>
</defs>
</svg>
